<?xml version="1.0" encoding="UTF-8" standalone="no"?>
<!-- Created with Inkscape (http://www.inkscape.org/) -->

<svg
   width="51.064587mm"
   height="66.950417mm"
   viewBox="0 0 51.064587 66.950417"
   version="1.1"
   id="svg1"
   xml:space="preserve"
   inkscape:version="1.4 (86a8ad7, 2024-10-11)"
   sodipodi:docname="logo_ostrich_light_background.svg"
   xmlns:inkscape="http://www.inkscape.org/namespaces/inkscape"
   xmlns:sodipodi="http://sodipodi.sourceforge.net/DTD/sodipodi-0.dtd"
   xmlns="http://www.w3.org/2000/svg"
   xmlns:svg="http://www.w3.org/2000/svg"><sodipodi:namedview
     id="namedview1"
     pagecolor="#505050"
     bordercolor="#eeeeee"
     borderopacity="1"
     inkscape:showpageshadow="0"
     inkscape:pageopacity="0"
     inkscape:pagecheckerboard="0"
     inkscape:deskcolor="#505050"
     inkscape:document-units="mm"
     inkscape:zoom="1.4378367"
     inkscape:cx="92.500073"
     inkscape:cy="85.197436"
     inkscape:window-width="1920"
     inkscape:window-height="1009"
     inkscape:window-x="-8"
     inkscape:window-y="-8"
     inkscape:window-maximized="1"
     inkscape:current-layer="layer1" /><defs
     id="defs1" /><g
     inkscape:label="Layer 1"
     inkscape:groupmode="layer"
     id="layer1"
     transform="translate(-87.144565,-117.9954)"><path
       style="fill:#2c7a7b;stroke:none;fill-opacity:1"
       d="m 123.92165,147.63957 c -0.79426,-2.06485 -2.57318,-3.79657 -4.23334,-5.21205 -11.62445,-9.9113 -29.440495,1.143 -32.543745,14.20788 3.913226,-2.22916 6.675981,-4.23022 11.377083,-4.23333 -2.880061,4.08922 -6.437232,7.45754 -7.14375,12.7 2.865545,-1.33947 5.22717,-3.60279 8.202083,-4.74535 7.437659,-2.85656 16.967879,-2.9425 20.372919,-11.9234 h 0.26458 c 1.12116,6.03901 -2.57714,10.2485 -6.61458,14.2875 -1.34912,1.34963 -5.39274,4.16265 -5.12039,6.32529 0.20283,1.6106 3.39856,2.98966 4.59122,3.84198 3.17758,2.2708 6.23227,4.80068 8.99583,7.55981 1.369,1.36679 2.84406,2.45282 2.91042,4.49792 h 4.7625 c -3.13114,-4.46251 -7.53127,-8.32502 -11.37708,-12.17084 -1.18675,-1.18675 -4.10951,-3.18268 -4.11248,-5.02708 -0.005,-3.1377 4.94486,-5.81405 7.28748,-6.94756 5.33752,-2.58262 11.33847,-6.34008 13.11301,-12.36702 1.23782,-4.20412 -0.38591,-8.9246 -3.13826,-12.17084 -1.75038,-2.06448 -5.64575,-4.76982 -4.73106,-7.9375 1.28081,-4.43564 7.96483,-3.43958 11.42506,-3.43958 -0.56136,-2.75731 -3.29752,-2.22174 -5.28779,-3.29198 -1.42514,-0.76636 -2.20446,-2.25631 -3.70805,-2.97125 -3.87266,-1.84142 -7.9826,0.59764 -9.33983,4.41115 -2.81792,7.91771 5.03109,11.60928 7.30258,17.99166 1.12338,3.15642 -0.64833,5.0702 -3.25441,6.61459 m 3.74214,-26.28318 c 1.31753,-0.44991 2.0394,1.60546 0.7178,2.01766 -1.30376,0.40663 -2.03436,-1.56808 -0.7178,-2.01766 m -20.67548,40.30609 -7.446912,7.14375 -1.478689,5.29167 -2.716061,10.84792 h 9.525002 c -1.21582,-1.9911 -5.305141,-1.44136 -5.492351,-3.96896 -0.555897,-7.50542 10.798631,-11.71311 7.609011,-19.31438 z"
       id="path1" /></g></svg>
